<svg xmlns="http://www.w3.org/2000/svg" viewBox="0 0 1024 1024" role="img" aria-label="Bracket Grid">
  <defs>
    <radialGradient id="bg" cx="50%" cy="45%" r="62%">
      <stop offset="0%" stop-color="#ebfcff" stop-opacity="0.9"/>
      <stop offset="100%" stop-color="#546bff" stop-opacity="0.18"/>
    </radialGradient>
    <linearGradient id="ring" x1="0" y1="0" x2="1" y2="1">
      <stop offset="0%" stop-color="#a8f2ff"/>
      <stop offset="100%" stop-color="#546bff"/>
    </linearGradient>
    <filter id="glow" x="-40%" y="-40%" width="180%" height="180%">
      <feGaussianBlur stdDeviation="22" result="b"/>
      <feMerge>
        <feMergeNode in="b"/>
        <feMergeNode in="SourceGraphic"/>
      </feMerge>
    </filter>
  </defs>

  <g filter="url(#glow)">
    <circle cx="512" cy="512" r="338" fill="url(#bg)" opacity="0.82"/>
    <path d="M512 150l214 124v248L512 646 298 522V274z" fill="none" stroke="url(#ring)" stroke-width="20"/>
    <circle cx="512" cy="512" r="250" fill="none" stroke="url(#ring)" stroke-width="10" opacity="0.88"/>
    <circle cx="512" cy="512" r="198" fill="none" stroke="#a8f2ff" stroke-opacity="0.35" stroke-width="6" stroke-dasharray="16 20"/>
  </g>

  <g fill="#a8f2ff">
    <path d="M430 392h66v48h-26v44h26v48h-26v44h26v48h-66v-48h26v-44h-26v-48h26v-44h-26zm164 0h66v48h-26v44h26v48h-26v44h26v48h-66v-48h26v-44h-26v-48h26v-44h-26z"/>
  </g>

  <g opacity="0.42" fill="#ebfcff">
    <circle cx="250" cy="300" r="14"/>
    <circle cx="768" cy="278" r="10"/>
    <circle cx="782" cy="722" r="12"/>
    <circle cx="260" cy="742" r="9"/>
  </g>
</svg>
