<svg xmlns="http://www.w3.org/2000/svg" viewBox="0 0 1024 1024" role="img" aria-label="Leader Pulse">
  <defs>
    <radialGradient id="bg" cx="50%" cy="45%" r="62%">
      <stop offset="0%" stop-color="#e0ecff" stop-opacity="0.9"/>
      <stop offset="100%" stop-color="#3350d8" stop-opacity="0.18"/>
    </radialGradient>
    <linearGradient id="ring" x1="0" y1="0" x2="1" y2="1">
      <stop offset="0%" stop-color="#9ecfff"/>
      <stop offset="100%" stop-color="#3350d8"/>
    </linearGradient>
    <filter id="glow" x="-40%" y="-40%" width="180%" height="180%">
      <feGaussianBlur stdDeviation="22" result="b"/>
      <feMerge>
        <feMergeNode in="b"/>
        <feMergeNode in="SourceGraphic"/>
      </feMerge>
    </filter>
  </defs>

  <g filter="url(#glow)">
    <circle cx="512" cy="512" r="338" fill="url(#bg)" opacity="0.82"/>
    <path d="M512 150l214 124v248L512 646 298 522V274z" fill="none" stroke="url(#ring)" stroke-width="20"/>
    <circle cx="512" cy="512" r="250" fill="none" stroke="url(#ring)" stroke-width="10" opacity="0.88"/>
    <circle cx="512" cy="512" r="198" fill="none" stroke="#9ecfff" stroke-opacity="0.35" stroke-width="6" stroke-dasharray="16 20"/>
  </g>

  <g fill="#9ecfff">
    <path d="M406 664h212v38H406z"/>
<rect x="426" y="520" width="42" height="144" rx="8"/>
<rect x="490" y="462" width="42" height="202" rx="8"/>
<rect x="554" y="410" width="42" height="254" rx="8"/>
  </g>

  <g opacity="0.42" fill="#e0ecff">
    <circle cx="250" cy="300" r="14"/>
    <circle cx="768" cy="278" r="10"/>
    <circle cx="782" cy="722" r="12"/>
    <circle cx="260" cy="742" r="9"/>
  </g>
</svg>
