<svg xmlns="http://www.w3.org/2000/svg" viewBox="0 0 1024 1024" role="img" aria-label="Pinball Orbit">
  <defs>
    <radialGradient id="bg" cx="50%" cy="45%" r="62%">
      <stop offset="0%" stop-color="#ffdff7" stop-opacity="0.9"/>
      <stop offset="100%" stop-color="#8f47ff" stop-opacity="0.18"/>
    </radialGradient>
    <linearGradient id="ring" x1="0" y1="0" x2="1" y2="1">
      <stop offset="0%" stop-color="#ff8de0"/>
      <stop offset="100%" stop-color="#8f47ff"/>
    </linearGradient>
    <filter id="glow" x="-40%" y="-40%" width="180%" height="180%">
      <feGaussianBlur stdDeviation="22" result="b"/>
      <feMerge>
        <feMergeNode in="b"/>
        <feMergeNode in="SourceGraphic"/>
      </feMerge>
    </filter>
  </defs>

  <g filter="url(#glow)">
    <circle cx="512" cy="512" r="338" fill="url(#bg)" opacity="0.82"/>
    <path d="M512 150l214 124v248L512 646 298 522V274z" fill="none" stroke="url(#ring)" stroke-width="20"/>
    <circle cx="512" cy="512" r="250" fill="none" stroke="url(#ring)" stroke-width="10" opacity="0.88"/>
    <circle cx="512" cy="512" r="198" fill="none" stroke="#ff8de0" stroke-opacity="0.35" stroke-width="6" stroke-dasharray="16 20"/>
  </g>

  <g fill="#ff8de0">
    <circle cx="512" cy="472" r="58"/>
<path d="M404 640l96-62 18 34-82 72z"/>
<path d="M620 640l-96-62-18 34 82 72z"/>
<circle cx="596" cy="542" r="16"/>
  </g>

  <g opacity="0.42" fill="#ffdff7">
    <circle cx="250" cy="300" r="14"/>
    <circle cx="768" cy="278" r="10"/>
    <circle cx="782" cy="722" r="12"/>
    <circle cx="260" cy="742" r="9"/>
  </g>
</svg>
