<svg xmlns="http://www.w3.org/2000/svg" viewBox="0 0 1024 1024" role="img" aria-label="WR Crown">
  <defs>
    <radialGradient id="bg" cx="50%" cy="45%" r="62%">
      <stop offset="0%" stop-color="#fff8d2" stop-opacity="0.9"/>
      <stop offset="100%" stop-color="#ff9e2f" stop-opacity="0.18"/>
    </radialGradient>
    <linearGradient id="ring" x1="0" y1="0" x2="1" y2="1">
      <stop offset="0%" stop-color="#ffe77f"/>
      <stop offset="100%" stop-color="#ff9e2f"/>
    </linearGradient>
    <filter id="glow" x="-40%" y="-40%" width="180%" height="180%">
      <feGaussianBlur stdDeviation="22" result="b"/>
      <feMerge>
        <feMergeNode in="b"/>
        <feMergeNode in="SourceGraphic"/>
      </feMerge>
    </filter>
  </defs>

  <g filter="url(#glow)">
    <circle cx="512" cy="512" r="338" fill="url(#bg)" opacity="0.82"/>
    <path d="M512 150l214 124v248L512 646 298 522V274z" fill="none" stroke="url(#ring)" stroke-width="20"/>
    <circle cx="512" cy="512" r="250" fill="none" stroke="url(#ring)" stroke-width="10" opacity="0.88"/>
    <circle cx="512" cy="512" r="198" fill="none" stroke="#ffe77f" stroke-opacity="0.35" stroke-width="6" stroke-dasharray="16 20"/>
  </g>

  <g fill="#ffe77f">
    <path d="M426 396h172v56h46v34c0 50-34 88-90 94v34h52v38H418v-38h52v-34c-56-6-90-44-90-94v-34h46zm-2 56v30c0 24 16 44 46 50v-80zm174 0v80c30-6 46-26 46-50v-30z"/>
  </g>

  <g opacity="0.42" fill="#fff8d2">
    <circle cx="250" cy="300" r="14"/>
    <circle cx="768" cy="278" r="10"/>
    <circle cx="782" cy="722" r="12"/>
    <circle cx="260" cy="742" r="9"/>
  </g>
</svg>
